<svg viewBox="0 0 1000 700" xmlns="http://www.w3.org/2000/svg" preserveAspectRatio="xMidYMid meet">
<!-- Fond mer -->
<rect width="1000" height="700" fill="#cfdbe5" opacity="0.3"/>

<!-- Pays voisins (contexte, gris pâle) -->
<g id="neighbors"><path class="neighbor" d="M-190.1,347.2L-173.7,354.3L-161.5,351.8L-158.2,343.2L-145.4,340.4L-136.3,334.6L-133.1,319.5L-119.5,315.8L-117.0,309.1L-109.4,314.2L-104.5,314.8L-95.6,314.9L-83.4,318.9L-78.5,321.2L-66.8,315.1L-61.4,318.8L-56.1,310.1L-46.5,310.5L-44.0,307.7L-42.3,300.1L-35.4,293.5L-26.6,297.8L-28.4,303.6L-23.5,304.5L-25.0,320.4L-18.6,326.6L-13.0,322.6L-5.9,320.7L4.2,312.3L15.3,313.6L31.9,313.7L34.8,319.1L25.4,321.2L17.2,324.7L-1.3,326.9L-18.6,330.9L-28.0,339.1L-24.2,347.2L-22.4,356.6L-30.4,364.5L-29.7,371.8L-34.2,378.6L-49.5,378.0L-43.2,390.5L-53.4,395.3L-60.3,406.7L-59.4,418.1L-65.7,423.4L-71.7,421.6L-84.0,424.1L-85.8,429.4L-97.8,429.4L-106.8,440.1L-107.3,456.2L-128.3,464.0L-139.5,462.4L-142.8,466.5L-152.4,464.1L-168.6,466.9L-195.6,457.3L-180.9,440.1L-182.3,428.0L-194.5,424.8L-195.7,412.8L-201.0,397.7L-194.1,387.3L-201.2,384.5L-196.7,370.7L-190.1,347.2Z"/><path class="neighbor" d="M317.3,604.6L317.0,618.2L311.3,615.3L312.4,630.6L307.8,620.7L306.9,611.1L303.8,601.9L297.0,590.9L282.2,590.2L283.7,598.0L278.6,608.5L271.7,604.7L269.4,608.1L264.8,606.0L258.6,604.4L256.1,588.8L250.5,574.5L253.2,563.1L243.3,558.1L246.9,551.2L257.0,544.1L245.3,534.1L251.0,521.3L263.8,529.5L271.5,530.4L272.9,543.5L288.3,546.1L303.2,545.9L312.5,549.1L305.1,565.1L297.9,566.2L292.9,577.0L301.7,586.8L304.4,574.7L308.8,574.6L317.3,604.6Z"/><path class="neighbor" d="M301.6,496.2L308.1,502.2L307.0,513.9L293.8,514.4L280.2,513.2L270.1,516.1L255.4,508.9L255.1,505.1L265.7,491.1L274.4,486.3L286.0,490.7L294.5,491.1L301.6,496.2Z"/><path class="neighbor" d="M78.0,350.1L95.4,372.3L93.7,387.7L100.1,397.4L99.6,407.1L88.0,404.5L92.6,425.4L108.4,437.4L130.8,450.6L120.6,459.2L114.3,476.9L130.0,484.0L145.2,493.3L166.2,503.9L188.3,506.4L197.6,516.0L210.1,517.8L229.5,522.2L242.9,521.9L244.8,514.4L242.6,502.4L243.9,494.2L253.7,490.2L255.1,505.1L255.4,508.9L270.1,516.1L280.2,513.2L293.8,514.4L307.0,513.9L308.1,502.2L301.6,496.2L314.6,493.8L329.2,479.8L347.8,467.7L361.4,472.4L372.9,464.4L380.4,476.2L375.0,484.1L392.4,486.9L393.6,494.1L387.9,497.6L389.3,509.2L377.7,505.8L356.9,518.9L357.3,529.7L348.4,545.6L347.6,554.8L340.4,570.4L327.8,566.1L327.2,585.7L323.6,592.1L325.3,600.1L317.3,604.6L308.8,574.6L304.4,574.7L301.7,586.8L292.9,577.0L297.9,566.2L305.1,565.1L312.5,549.1L303.2,545.9L288.3,546.1L272.9,543.5L271.5,530.4L263.8,529.5L251.0,521.3L245.3,534.1L257.0,544.1L246.9,551.2L243.3,558.1L253.2,563.1L250.5,574.5L256.1,588.8L258.6,604.4L256.3,611.3L245.3,611.0L225.4,614.9L226.3,629.2L217.7,640.4L194.5,653.1L176.5,675.4L164.3,687.3L148.3,699.7L148.2,708.4L140.2,713.0L125.7,719.8L118.1,720.8L113.3,735.3L116.7,759.9L117.5,775.6L110.7,793.5L110.6,825.7L102.3,826.6L94.9,841.0L99.8,847.3L85.1,852.6L79.7,865.5L73.2,870.9L58.0,853.3L50.5,826.8L44.3,807.7L38.6,798.7L30.1,780.6L26.1,756.9L23.3,745.1L8.6,719.1L1.9,682.4L-2.9,658.2L-2.8,635.3L-6.0,617.6L-29.4,628.9L-40.8,626.6L-61.9,603.7L-54.1,596.9L-58.9,589.5L-77.8,573.4L-67.1,560.8L-31.6,560.8L-34.8,544.6L-43.8,535.0L-45.7,520.4L-56.2,511.9L-38.4,492.1L-19.7,493.5L-2.8,473.7L7.3,454.5L22.9,435.5L22.7,422.0L36.4,411.1L23.4,401.7L17.8,388.9L12.1,372.4L20.0,364.2L44.5,368.8L62.4,366.0L78.0,350.1Z"/><path class="neighbor" d="M994.2,375.6L996.2,382.0L987.2,393.5L980.5,387.4L972.3,391.8L968.0,402.9L957.5,397.5L957.6,388.5L966.5,377.2L975.7,379.4L982.3,371.5L994.2,375.6Z M1096.4,318.9L1090.3,334.0L1093.1,343.5L1084.7,356.8L1064.1,365.7L1035.8,366.9L1012.8,388.5L1002.0,381.2L1001.3,367.1L973.2,371.3L954.1,380.2L935.3,380.5L951.6,394.5L940.9,426.6L930.4,434.6L922.6,427.2L926.6,410.2L916.4,404.7L909.8,391.7L925.1,385.9L933.5,374.0L949.7,364.2L961.6,351.3L993.7,345.6L1010.9,349.5L1027.8,315.9L1038.6,324.9L1062.2,306.0L1071.4,298.6L1081.5,275.5L1078.8,254.2L1085.6,242.3L1102.7,238.8L1111.5,265.0L1111.0,280.4L1096.1,299.4L1096.4,318.9Z M1143.7,185.9L1155.1,189.9L1166.5,181.9L1170.1,203.1L1146.1,208.3L1132.0,227.1L1106.6,214.2L1097.9,234.9L1079.9,235.2L1077.7,216.4L1085.7,201.8L1102.9,200.8L1107.6,174.6L1112.4,159.8L1131.3,179.5L1143.7,185.9Z"/><path class="neighbor" d="M-32.9,222.0L-42.1,225.5L-63.4,238.7L-70.4,252.2L-76.5,252.3L-80.9,243.4L-101.4,242.8L-104.7,227.3L-112.5,227.1L-111.3,208.2L-130.6,194.3L-158.3,195.8L-177.2,198.6L-192.6,181.5L-205.8,174.4L-230.8,160.8L-233.8,159.2L-275.3,170.3L-274.7,240.1L-283.0,241.0L-294.3,226.2L-305.2,220.9L-323.5,224.8L-330.6,231.1L-331.5,226.5L-327.5,218.6L-330.6,212.0L-349.3,205.6L-356.6,188.6L-365.5,183.8L-366.0,177.7L-350.3,179.4L-349.7,165.6L-336.0,162.5L-321.9,165.4L-319.0,146.9L-321.9,135.2L-338.0,136.1L-351.7,131.5L-370.4,139.8L-385.5,143.8L-393.7,140.7L-392.0,131.0L-402.3,118.4L-414.3,118.9L-428.0,106.1L-418.7,91.7L-423.4,87.9L-410.5,67.1L-393.9,78.0L-391.9,64.2L-358.6,43.7L-333.4,43.2L-297.9,56.3L-278.8,63.9L-261.6,55.9L-236.1,55.6L-215.4,65.4L-210.8,59.7L-188.1,60.6L-184.1,51.6L-210.2,38.6L-194.7,29.4L-197.7,24.2L-182.3,19.3L-193.9,6.3L-186.5,-0.1L-126.2,-6.7L-118.3,-11.4L-77.9,-18.4L-63.4,-26.2L-34.4,-22.1L-29.4,-2.5L-12.5,-7.1L8.2,-0.7L6.9,9.7L22.3,8.6L62.8,-9.3L56.9,-3.3L77.4,11.3L113.5,59.3L122.1,49.4L144.3,60.3L167.5,55.4L176.4,58.9L184.1,69.8L195.4,73.5L202.3,81.5L223.1,79.0L231.6,90.5L219.3,103.1L205.9,104.9L205.2,123.9L196.2,132.4L164.2,126.2L152.6,160.1L144.3,164.3L112.4,171.8L126.9,204.7L115.8,209.6L117.1,220.4L107.2,217.6L99.1,210.8L75.1,208.9L48.4,208.3L42.5,210.4L19.6,202.5L10.4,206.4L7.9,217.6L-18.6,211.0L-29.3,213.7L-32.9,222.0Z"/><path class="neighbor" d="M-32.9,222.0L-29.3,213.7L-18.6,211.0L7.9,217.6L10.4,206.4L19.6,202.5L42.5,210.4L48.4,208.3L75.1,208.9L99.1,210.8L107.2,217.6L117.1,220.4L114.8,224.7L89.4,234.9L83.7,242.4L63.0,244.7L56.9,256.8L39.8,254.2L28.7,257.9L13.3,266.9L15.5,271.3L10.9,275.6L-19.6,278.5L-39.5,272.4L-57.0,273.8L-55.5,262.9L-37.9,266.1L-32.0,260.2L-19.8,262.1L0.9,248.5L-18.2,238.5L-29.7,243.2L-41.6,236.1L-28.1,223.9L-32.9,222.0Z"/><path class="neighbor" d="M892.7,291.1L906.7,313.4L910.7,325.7L910.8,347.5L904.7,357.9L890.1,361.5L877.2,369.4L862.7,371.0L860.9,360.7L863.9,346.5L856.7,326.8L868.7,323.6L857.7,307.4L858.7,305.7L865.9,306.4L872.2,297.9L883.5,296.9L890.4,295.7L892.7,291.1Z"/><path class="neighbor" d="M519.7,751.6L524.9,743.1L525.6,727.0L512.6,710.6L511.6,691.9L499.3,676.5L487.1,675.2L483.9,681.8L474.4,682.4L469.6,679.0L452.6,690.3L452.2,673.3L456.2,653.4L445.3,652.5L444.3,641.2L437.4,635.3L440.8,628.4L454.5,616.1L456.0,620.5L464.6,621.0L462.1,599.4L470.5,596.6L479.9,611.6L487.2,628.7L507.0,628.9L513.3,645.4L503.0,650.3L498.3,657.1L517.7,668.5L531.1,690.8L541.2,707.5L553.4,720.6L557.5,734.0L554.6,752.9L540.3,746.0L533.0,759.0L519.7,751.6Z"/><path class="neighbor" d="M428.1,639.7L418.7,647.9L407.3,648.8L400.0,669.2L393.2,672.7L401.0,689.3L411.2,703.1L417.8,715.6L411.9,732.0L406.3,735.5L410.2,745.0L420.9,760.0L422.8,770.6L422.5,779.4L428.8,796.6L420.0,814.3L412.2,833.7L410.6,819.7L415.6,805.2L410.1,794.0L411.4,773.4L404.9,763.6L399.6,740.9L396.7,717.0L389.8,701.3L379.1,710.8L360.8,724.3L351.7,722.6L341.8,718.2L347.3,694.8L343.9,677.0L331.3,655.2L333.3,648.4L323.8,646.0L312.4,630.6L311.3,615.3L317.0,618.2L317.3,604.6L325.3,600.1L323.6,592.1L327.2,585.7L327.8,566.1L340.4,570.4L347.6,554.8L348.4,545.6L357.3,529.7L356.9,518.9L377.7,505.8L389.3,509.2L387.9,497.6L393.6,494.1L392.4,486.9L401.8,485.5L407.2,496.7L414.2,501.2L414.7,515.7L414.1,531.3L398.8,547.1L396.9,569.5L413.9,566.4L417.7,583.8L427.9,587.5L423.2,603.2L435.2,610.3L442.2,613.8L454.0,608.2L454.5,616.1L440.8,628.4L437.4,635.3L428.1,639.7Z"/><path class="neighbor" d="M237.9,89.0L254.9,85.7L285.7,69.4L310.2,60.5L324.3,66.3L341.1,66.6L351.9,75.4L368.0,76.1L391.3,80.9L407.0,67.7L400.4,56.5L417.1,36.9L435.2,44.8L449.8,47.0L468.8,51.8L471.9,66.0L494.8,74.0L510.0,70.5L530.4,68.0L546.6,70.5L562.4,79.6L572.2,89.2L587.1,89.1L607.5,92.1L622.3,87.4L643.5,84.3L667.1,71.0L676.8,73.0L685.3,79.4L704.5,77.8L696.6,92.0L685.2,111.0L689.4,118.7L698.5,116.3L714.4,119.2L726.8,112.3L739.8,118.3L754.4,131.5L752.6,138.2L739.9,136.1L716.5,138.6L705.1,144.0L693.3,156.5L668.7,163.8L652.6,173.9L636.1,170.0L627.0,168.3L618.5,180.5L623.7,187.8L626.3,194.0L615.0,200.4L603.4,210.5L584.6,217.2L560.4,217.9L534.3,224.5L515.6,234.6L508.4,228.8L488.9,228.8L465.0,217.3L449.1,214.5L427.7,217.1L394.4,212.9L376.6,213.3L367.1,202.1L359.8,184.6L349.8,182.5L330.3,170.7L308.6,168.1L289.4,164.9L283.6,156.7L289.9,134.5L278.7,119.3L255.7,112.2L242.2,102.2L237.9,89.0Z"/><path class="neighbor" d="M243.9,494.2L242.6,502.4L244.8,514.4L242.9,521.9L229.5,522.2L210.1,517.8L197.6,516.0L188.3,506.4L166.2,503.9L145.2,493.3L130.0,484.0L114.3,476.9L120.6,459.2L130.8,450.6L137.5,446.1L150.4,451.9L166.7,464.2L175.8,466.9L181.2,476.0L193.7,479.7L206.8,488.0L225.1,492.4L243.9,494.2Z"/><path class="neighbor" d="M34.8,319.1L46.7,327.9L51.5,342.5L78.0,350.1L62.4,366.0L44.5,368.8L20.0,364.2L12.1,372.4L17.8,388.9L23.4,401.7L36.4,411.1L22.7,422.0L22.9,435.5L7.3,454.5L-2.8,473.7L-19.7,493.5L-38.4,492.1L-56.2,511.9L-45.7,520.4L-43.8,535.0L-34.8,544.6L-31.6,560.8L-67.1,560.8L-77.8,573.4L-89.6,568.6L-94.4,555.0L-106.9,540.6L-136.6,544.2L-162.8,544.5L-185.5,547.2L-179.4,525.2L-156.2,515.4L-157.5,506.7L-165.2,503.6L-165.7,487.0L-181.1,478.7L-187.6,467.2L-195.6,457.3L-168.6,466.9L-152.4,464.1L-142.8,466.5L-139.5,462.4L-128.3,464.0L-107.3,456.2L-106.8,440.1L-97.8,429.4L-85.8,429.4L-84.0,424.1L-71.7,421.6L-65.7,423.4L-59.4,418.1L-60.3,406.7L-53.4,395.3L-43.2,390.5L-49.5,378.0L-34.2,378.6L-29.7,371.8L-30.4,364.5L-22.4,356.6L-24.2,347.2L-28.0,339.1L-18.6,330.9L-1.3,326.9L17.2,324.7L25.4,321.2L34.8,319.1Z"/><path class="neighbor" d="M860.9,862.4L862.6,875.0L863.5,885.6L858.0,902.9L852.1,883.6L844.6,893.2L849.7,907.2L845.1,916.0L826.1,905.1L821.6,891.4L826.5,882.4L816.3,873.4L811.2,881.3L803.6,880.5L791.7,891.1L789.0,885.6L795.4,869.6L805.5,864.3L814.3,857.2L820.0,865.7L832.3,860.5L834.9,852.1L846.3,851.6L845.4,837.0L858.4,845.9L859.8,855.5L860.9,862.4Z M822.3,827.2L816.5,833.4L811.5,845.3L806.4,850.9L796.5,837.9L799.8,832.8L803.8,827.5L805.6,815.7L814.5,814.6L811.9,827.4L823.8,809.1L822.3,827.2Z M733.9,845.4L712.5,863.3L720.4,850.1L732.0,838.4L741.7,825.3L750.2,806.5L753.1,821.9L742.4,832.4L733.9,845.4Z M788.4,796.6L798.1,802.5L808.4,802.5L808.1,810.4L800.6,818.4L790.4,824.1L789.8,815.3L790.9,805.6L788.4,796.6Z M846.8,791.5L851.3,812.6L838.9,807.6L839.2,814.0L843.2,825.6L835.5,829.9L834.8,816.6L830.0,815.6L827.5,804.1L837.0,805.7L836.7,798.5L826.9,784.0L842.4,784.5L846.8,791.5Z M782.7,774.4L778.4,790.7L771.5,781.3L763.3,766.9L777.1,767.5L782.7,774.4Z M779.4,671.5L789.3,676.9L794.3,672.0L795.8,676.8L793.1,684.7L798.6,698.2L794.4,714.0L784.9,720.2L782.3,735.5L785.9,750.5L794.5,752.6L801.6,750.4L821.8,760.9L820.2,771.2L825.5,775.7L823.8,784.4L811.3,775.2L805.3,765.2L801.2,772.2L790.9,760.8L776.2,763.6L768.2,759.4L769.0,751.6L774.1,746.8L769.2,742.4L767.2,749.3L759.2,738.4L756.8,730.2L756.2,712.0L762.7,718.3L764.4,688.7L769.6,671.5L779.4,671.5Z"/><path class="neighbor" d="M929.7,219.6L931.9,222.9L925.8,221.7L918.8,228.1L914.0,234.6L914.6,248.2L906.3,252.3L903.4,255.7L897.3,261.3L886.6,264.4L879.6,269.5L879.1,277.7L877.2,279.7L883.6,282.8L892.7,291.1L890.4,295.7L883.5,296.9L872.2,297.9L865.9,306.4L858.7,305.7L857.7,307.4L849.8,303.8L847.9,307.4L843.2,309.0L842.6,305.4L838.4,303.7L834.1,300.7L838.5,292.3L842.3,290.1L840.9,286.6L844.9,276.4L843.9,273.4L834.5,271.3L826.9,266.2L840.0,254.1L857.8,243.9L868.9,230.5L876.5,236.4L890.5,237.1L887.9,227.1L912.8,219.0L919.3,208.4L929.7,219.6Z"/><path class="neighbor" d="M1139.5,61.5L1155.7,95.0L1131.8,88.8L1121.9,116.1L1137.6,135.5L1137.2,148.7L1125.0,137.3L1114.4,152.0L1111.4,136.1L1113.2,117.7L1111.4,97.3L1115.1,83.0L1115.8,57.7L1106.4,39.1L1107.8,13.2L1122.7,4.5L1116.3,-4.3L1123.5,-6.9L1127.7,5.6L1133.2,23.8L1132.8,42.4L1139.5,61.5Z M-810.8,-6.2L-840.4,-5.9L-860.3,-8.1L-856.6,-16.4L-834.4,-22.5L-817.5,-19.2L-810.4,-16.2L-812.1,-11.0L-810.8,-6.2Z M-4000.2,-238.1L-3989.4,-233.4L-3993.1,-247.1L-3949.3,-244.3L-3917.7,-226.6L-3933.7,-218.4L-3960.2,-216.4L-3960.6,-197.9L-3967.0,-194.0L-3982.1,-194.5L-3994.4,-201.1L-4015.9,-206.6L-4019.5,-214.9L-4035.8,-218.0L-4054.2,-215.5L-4063.0,-222.1L-4059.5,-229.1L-4078.8,-224.7L-4071.5,-215.8L-4080.6,-207.7L-4080.6,-283.1L-4041.1,-268.6L-3998.8,-249.8L-4000.2,-238.1Z M1725.8,-318.4L1708.1,-317.5L1705.2,-323.5L1725.8,-331.4L1725.8,-318.4Z M-4059.6,-319.6L-4080.6,-318.4L-4080.6,-331.4L-4078.6,-332.2L-4064.9,-332.1L-4041.6,-326.7L-4043.0,-324.1L-4059.6,-319.6Z M1138.8,-363.5L1114.3,-363.3L1081.3,-365.5L1078.4,-366.5L1093.7,-373.9L1113.9,-375.7L1136.8,-368.5L1138.8,-363.5Z M1253.7,-398.9L1235.1,-391.4L1209.3,-393.1L1179.3,-400.6L1183.2,-406.7L1213.3,-403.8L1253.7,-398.9Z M1162.7,-407.9L1150.0,-393.9L1090.5,-394.4L1063.8,-389.9L1031.8,-402.2L1040.5,-415.3L1061.8,-418.8L1104.4,-418.0L1162.7,-407.9Z M-249.4,-316.3L-259.0,-314.7L-311.7,-317.1L-315.9,-325.5L-345.1,-330.6L-347.5,-340.8L-331.0,-344.9L-331.5,-355.2L-299.6,-371.3L-314.4,-373.6L-275.8,-390.2L-280.1,-398.8L-244.1,-408.8L-190.8,-421.0L-137.1,-424.5L-109.5,-431.5L-78.1,-434.0L-66.9,-426.5L-77.7,-420.6L-134.9,-411.3L-184.1,-402.2L-234.2,-384.2L-258.3,-365.8L-283.6,-347.6L-280.3,-331.8L-249.4,-316.3Z M547.9,-434.6L552.3,-425.3L567.0,-429.9L614.1,-429.6L650.5,-420.4L663.5,-413.3L659.4,-403.5L641.6,-397.9L599.2,-387.4L587.1,-381.8L607.1,-379.1L631.0,-374.4L645.5,-377.9L653.7,-365.8L660.8,-370.7L686.6,-373.7L738.3,-370.6L742.3,-361.7L809.7,-358.9L810.6,-373.4L844.8,-370.1L870.6,-370.2L896.6,-360.2L904.1,-348.1L894.5,-340.2L914.8,-325.3L940.1,-317.6L955.7,-337.4L981.6,-328.9L1009.1,-334.0L1040.3,-328.2L1052.2,-333.5L1078.5,-330.9L1066.9,-348.4L1088.2,-356.6L1233.9,-344.3L1247.6,-333.1L1289.8,-318.6L1354.9,-322.2L1387.1,-319.1L1400.5,-311.3L1398.5,-297.4L1418.4,-292.1L1440.0,-295.9L1468.6,-296.4L1499.0,-292.7L1529.6,-294.8L1557.7,-278.0L1577.7,-284.0L1564.6,-296.1L1571.8,-304.5L1623.3,-299.2L1656.8,-300.4L1703.2,-291.4L1725.8,-283.1L1725.8,-207.7L1725.7,-207.6L1705.0,-199.3L1684.1,-200.7L1698.6,-190.6L1708.2,-175.0L1715.7,-169.9L1717.5,-162.1L1713.4,-157.1L1683.3,-161.2L1638.2,-147.0L1623.9,-144.8L1599.2,-131.5L1575.8,-119.9L1569.9,-111.3L1546.8,-124.4L1504.8,-109.5L1497.4,-116.5L1481.9,-108.4L1460.3,-111.0L1455.1,-98.6L1435.8,-80.3L1436.3,-72.6L1454.7,-68.4L1452.5,-40.9L1437.6,-40.1L1430.7,-24.3L1437.4,-16.2L1409.2,-6.5L1403.6,15.1L1379.5,19.7L1374.7,38.9L1351.4,56.5L1345.5,43.5L1338.6,15.9L1329.6,-26.1L1337.3,-52.4L1350.9,-63.7L1351.8,-72.5L1376.8,-76.7L1405.7,-100.5L1433.4,-120.0L1462.4,-135.1L1475.4,-161.8L1455.8,-160.2L1446.1,-144.6L1405.2,-123.8L1392.0,-147.1L1350.3,-140.7L1310.0,-108.9L1323.3,-97.3L1287.3,-92.4L1262.4,-90.4L1263.5,-104.1L1238.4,-107.0L1218.5,-97.7L1169.1,-101.0L1116.1,-95.4L1063.8,-58.4L1002.0,-13.8L1027.4,-11.4L1035.4,0.4L1051.0,4.6L1061.4,-4.8L1079.1,-3.6L1102.3,17.2L1102.9,33.3L1090.3,52.2L1088.9,74.8L1081.6,105.1L1057.3,132.4L1051.9,145.5L1030.0,167.6L1008.3,189.4L997.9,200.6L976.4,211.7L966.2,211.9L956.1,202.7L934.4,216.6L931.9,222.9L929.7,219.6L929.6,209.9L937.8,209.4L940.1,187.1L935.9,170.9L949.7,164.2L969.3,167.5L980.2,149.1L985.7,128.4L991.9,121.5L1000.4,104.5L973.8,110.0L959.8,117.5L935.3,117.5L928.7,99.7L909.6,86.3L881.6,80.2L875.6,61.7L870.0,50.1L863.9,41.9L854.0,22.8L839.8,15.9L815.7,10.2L794.3,10.8L774.2,14.2L760.9,23.6L769.8,28.1L770.0,38.5L761.0,44.6L746.4,64.6L746.6,73.0L723.9,84.9L704.5,77.8L685.3,79.4L676.8,73.0L667.1,71.0L643.5,84.3L622.3,87.4L607.5,92.1L587.1,89.1L572.2,89.2L562.4,79.6L546.6,70.5L530.4,68.0L510.0,70.5L494.8,74.0L471.9,66.0L468.8,51.8L449.8,47.0L435.2,44.8L417.1,36.9L400.4,56.5L407.0,67.7L391.3,80.9L368.0,76.1L351.9,75.4L341.1,66.6L324.3,66.3L310.2,60.5L285.7,69.4L254.9,85.7L237.9,89.0L231.6,90.5L223.1,79.0L202.3,81.5L195.4,73.5L184.1,69.8L176.4,58.9L167.5,55.4L144.3,60.3L122.1,49.4L113.5,59.3L77.4,11.3L56.9,-3.3L62.8,-9.3L22.3,8.6L6.9,9.7L8.2,-0.7L-12.5,-7.1L-29.4,-2.5L-34.4,-22.1L-63.4,-26.2L-77.9,-18.4L-118.3,-11.4L-126.2,-6.7L-186.5,-0.1L-193.9,6.3L-182.3,19.3L-197.7,24.2L-194.7,29.4L-210.2,38.6L-184.1,51.6L-188.1,60.6L-210.8,59.7L-215.4,65.4L-236.1,55.6L-261.6,55.9L-278.8,63.9L-297.9,56.3L-333.4,43.2L-358.6,43.7L-391.9,64.2L-393.9,78.0L-410.5,67.1L-423.4,87.9L-418.7,91.7L-428.0,106.1L-414.3,118.9L-402.3,118.4L-392.0,131.0L-393.7,140.7L-385.5,143.8L-392.8,155.0L-408.5,158.1L-424.5,177.7L-409.8,195.6L-411.4,208.4L-393.8,230.6L-403.4,238.3L-406.2,243.1L-413.3,241.8L-424.4,230.3L-429.0,229.7L-439.1,225.3L-444.0,217.5L-459.1,213.6L-468.9,216.5L-471.7,213.0L-493.6,203.9L-517.4,200.9L-531.0,197.6L-533.0,199.9L-553.5,183.9L-571.9,176.8L-585.9,165.6L-574.1,162.6L-560.8,146.8L-569.8,139.3L-546.0,131.6L-546.4,127.4L-560.9,130.5L-560.4,122.1L-552.1,116.8L-536.5,115.4L-533.9,109.1L-537.5,98.7L-531.0,88.8L-531.1,83.2L-554.9,77.1L-564.3,77.3L-574.3,68.4L-586.7,71.4L-607.2,64.8L-606.8,61.0L-612.5,52.8L-625.4,51.9L-626.7,46.0L-622.7,42.2L-633.0,31.5L-649.7,33.3L-654.6,32.4L-658.7,36.7L-664.7,35.9L-668.7,23.8L-672.5,17.5L-669.4,15.8L-656.4,16.4L-650.1,12.3L-654.7,7.2L-665.6,3.9L-664.7,0.5L-671.2,-3.0L-681.3,-15.4L-677.9,-20.5L-679.5,-29.3L-695.2,-33.9L-703.7,-31.6L-706.0,-36.3L-723.0,-41.0L-728.1,-52.2L-729.5,-61.4L-737.3,-65.7L-730.4,-71.7L-735.2,-89.4L-723.7,-100.3L-726.1,-103.6L-707.8,-114.0L-724.7,-123.0L-690.1,-147.2L-675.2,-158.1L-669.1,-167.8L-693.0,-180.7L-686.4,-193.1L-700.9,-207.1L-690.0,-223.4L-708.8,-244.9L-693.9,-259.2L-718.6,-271.8L-716.3,-285.0L-703.2,-286.8L-675.8,-294.3L-659.1,-300.9L-632.7,-289.5L-588.5,-285.0L-527.5,-263.6L-515.2,-254.6L-514.1,-242.0L-532.0,-232.1L-558.3,-227.0L-630.3,-241.4L-642.2,-239.0L-615.9,-225.1L-614.9,-216.4L-613.8,-197.0L-593.0,-191.3L-580.4,-186.3L-578.4,-195.5L-588.1,-203.7L-577.8,-210.8L-538.8,-199.0L-525.2,-203.7L-536.1,-217.5L-498.5,-236.0L-483.6,-234.9L-468.6,-228.3L-459.2,-241.3L-472.6,-252.6L-464.7,-263.9L-476.6,-275.7L-431.5,-269.6L-422.2,-259.0L-442.7,-256.7L-442.5,-246.1L-429.9,-239.7L-404.9,-243.8L-401.0,-255.8L-367.3,-264.8L-311.0,-281.1L-298.8,-280.2L-314.7,-268.7L-294.7,-266.7L-283.2,-273.2L-253.0,-273.7L-229.0,-281.5L-210.6,-270.1L-192.3,-282.7L-209.2,-293.6L-200.8,-299.9L-153.2,-294.1L-130.8,-288.2L-72.4,-266.6L-61.6,-276.5L-78.0,-286.5L-78.5,-290.5L-97.9,-292.4L-92.6,-301.4L-101.2,-316.1L-101.7,-322.2L-71.9,-339.3L-61.3,-356.5L-49.4,-360.2L-6.7,-355.2L-3.3,-344.7L-18.6,-329.4L-8.5,-323.3L-3.4,-310.1L-7.0,-284.2L10.8,-272.6L3.8,-260.0L-27.7,-233.1L-9.3,-230.3L-2.9,-237.1L14.9,-242.0L19.1,-251.3L33.1,-260.3L23.7,-271.1L31.2,-283.6L13.6,-285.1L9.7,-295.7L22.6,-314.7L1.6,-330.1L30.5,-342.8L26.8,-356.3L34.8,-356.7L43.3,-346.2L36.9,-328.0L54.2,-324.5L46.8,-338.2L73.8,-345.6L107.3,-346.6L137.1,-335.8L122.8,-351.6L121.1,-371.7L149.2,-375.5L188.0,-374.7L222.9,-377.2L209.8,-387.1L228.5,-399.5L247.0,-400.0L278.4,-409.4L321.0,-411.9L326.4,-417.1L368.7,-418.9L381.9,-414.6L418.1,-424.7L447.7,-424.4L452.2,-432.5L467.6,-440.6L505.7,-448.3L533.3,-442.2L511.4,-437.5L547.9,-434.6Z M517.3,-459.9L426.4,-452.6L455.9,-477.4L469.1,-479.5L481.3,-478.3L522.1,-467.5L517.3,-459.9Z M-352.6,-502.2L-374.3,-499.8L-388.8,-498.3L-391.0,-495.2L-409.9,-492.1L-427.4,-496.6L-418.2,-502.5L-454.1,-503.1L-422.6,-506.5L-398.1,-506.7L-394.8,-501.6L-385.5,-506.2L-370.3,-509.3L-346.4,-505.1L-352.6,-502.2Z M434.5,-470.7L399.3,-468.4L354.4,-473.8L327.6,-481.0L315.2,-494.6L293.2,-498.4L335.1,-511.3L370.0,-515.5L401.4,-506.0L438.5,-487.7L434.5,-470.7Z"/><path class="neighbor" d="M477.2,791.1L462.7,782.4L448.9,782.7L451.3,767.9L437.1,768.0L435.8,788.8L427.1,816.4L421.8,833.1L422.9,846.8L433.4,847.4L440.0,864.7L442.9,881.1L451.9,891.9L461.7,894.1L470.0,903.9L464.7,911.7L454.1,913.9L452.8,904.2L439.7,895.9L436.9,899.3L430.5,892.1L427.7,882.7L419.2,872.0L411.4,863.0L408.7,874.2L405.6,863.6L407.4,851.8L412.2,833.7L420.0,814.3L428.8,796.6L422.5,779.4L422.8,770.6L420.9,760.0L410.2,745.0L406.3,735.5L411.9,732.0L417.8,715.6L411.2,703.1L401.0,689.3L393.2,672.7L400.0,669.2L407.3,648.8L418.7,647.9L428.1,639.7L437.4,635.3L444.3,641.2L445.3,652.5L456.2,653.4L452.2,673.3L452.6,690.3L469.6,679.0L474.4,682.4L483.9,681.8L487.1,675.2L499.3,676.5L511.6,691.9L512.6,710.6L525.6,727.0L524.9,743.1L519.7,751.6L504.5,748.9L483.7,752.5L473.4,768.2L477.2,791.1Z"/><path class="neighbor" d="M-32.0,260.2L-37.9,266.1L-55.5,262.9L-57.0,273.8L-39.5,272.4L-19.6,278.5L10.9,275.6L15.0,293.1L20.3,291.2L30.1,295.5L29.5,302.9L31.9,313.7L15.3,313.6L4.2,312.3L-5.9,320.7L-13.0,322.6L-18.6,326.6L-25.0,320.4L-23.5,304.5L-28.4,303.6L-26.6,297.8L-35.4,293.5L-42.3,300.1L-44.0,307.7L-46.5,310.5L-56.1,310.1L-61.4,318.8L-66.8,315.1L-78.5,321.2L-83.4,318.9L-74.3,299.7L-77.8,285.6L-89.6,281.1L-85.5,272.8L-72.0,273.7L-64.3,263.2L-59.2,251.1L-37.6,246.7L-41.0,255.5L-38.7,260.7L-32.0,260.2Z"/><path class="neighbor" d="M786.7,560.1L777.0,590.4L770.1,606.0L761.6,590.0L759.8,576.0L769.3,557.4L782.2,543.1L789.5,548.7L786.7,560.1Z"/><path class="neighbor" d="M565.3,613.9L543.8,630.1L530.3,647.9L526.8,661.1L539.1,681.0L554.2,705.7L568.9,717.4L578.7,732.6L586.1,767.6L583.9,800.9L570.4,813.4L552.0,825.5L538.8,841.3L518.7,858.9L512.8,846.8L517.4,834.0L505.4,823.2L519.4,815.6L536.3,814.2L529.2,802.8L556.3,788.2L558.3,765.5L554.6,752.9L557.5,734.0L553.4,720.6L541.2,707.5L531.1,690.8L517.7,668.5L498.3,657.1L503.0,650.3L513.3,645.4L507.0,628.9L487.2,628.7L479.9,611.6L470.5,596.6L479.1,592.0L492.0,592.1L507.7,589.9L521.4,579.8L529.2,586.9L544.0,590.4L541.4,601.3L549.1,609.0L565.3,613.9Z"/></g>

<!-- CHINE (objet principal) -->
<path id="china" class="china-territory" d="M602.2,668.2L588.3,677.3L575.1,671.5L574.6,655.2L582.6,646.6L600.2,641.3L609.5,641.8L613.1,649.0L606.0,657.3L602.2,668.2Z M881.6,80.2L909.6,86.3L928.7,99.7L935.3,117.5L959.8,117.5L973.8,110.0L1000.4,104.5L991.9,121.5L985.7,128.4L980.2,149.1L969.3,167.5L949.7,164.2L935.9,170.9L940.1,187.1L937.8,209.4L929.6,209.9L929.7,219.6L919.3,208.4L912.8,219.0L887.9,227.1L890.5,237.1L876.5,236.4L868.9,230.5L857.8,243.9L840.0,254.1L826.9,266.2L804.3,271.7L792.4,280.6L775.1,285.7L783.6,277.0L780.3,269.6L793.0,256.9L784.5,247.0L770.5,253.6L752.3,266.8L742.3,279.0L726.5,279.9L718.3,288.7L726.8,301.5L740.0,304.6L740.5,313.1L753.3,318.7L771.3,305.2L785.7,312.5L796.1,313.0L798.7,322.9L775.9,328.2L768.3,338.4L752.7,347.9L744.4,361.2L761.7,371.6L768.1,390.2L777.9,407.5L788.8,422.0L788.6,436.1L778.5,441.3L782.3,451.4L791.8,457.2L789.3,472.6L785.2,487.6L776.2,489.3L764.4,509.8L751.4,534.6L736.4,557.2L714.2,574.7L691.8,590.6L673.6,592.8L663.8,601.2L658.2,595.0L649.0,604.4L626.5,613.9L609.4,616.8L603.9,636.8L595.0,637.9L590.8,624.2L594.6,616.9L572.9,610.8L565.3,613.9L549.1,609.0L541.4,601.3L544.0,590.4L529.2,586.9L521.4,579.8L507.7,589.9L492.0,592.1L479.1,592.0L470.5,596.6L462.1,599.4L464.6,621.0L456.0,620.5L454.5,616.1L454.0,608.2L442.2,613.8L435.2,610.3L423.2,603.2L427.9,587.5L417.7,583.8L413.9,566.4L396.9,569.5L398.8,547.1L414.1,531.3L414.7,515.7L414.2,501.2L407.2,496.7L401.8,485.5L392.4,486.9L375.0,484.1L380.4,476.2L372.9,464.4L361.4,472.4L347.8,467.7L329.2,479.8L314.6,493.8L301.6,496.2L294.5,491.1L286.0,490.7L274.4,486.3L265.7,491.1L255.1,505.1L253.7,490.2L243.9,494.2L225.1,492.4L206.8,488.0L193.7,479.7L181.2,476.0L175.8,466.9L166.7,464.2L150.4,451.9L137.5,446.1L130.8,450.6L108.4,437.4L92.6,425.4L88.0,404.5L99.6,407.1L100.1,397.4L93.7,387.7L95.4,372.3L78.0,350.1L51.5,342.5L46.7,327.9L34.8,319.1L31.9,313.7L29.5,302.9L30.1,295.5L20.3,291.2L15.0,293.1L10.9,275.6L15.5,271.3L13.3,266.9L28.7,257.9L39.8,254.2L56.9,256.8L63.0,244.7L83.7,242.4L89.4,234.9L114.8,224.7L117.1,220.4L115.8,209.6L126.9,204.7L112.4,171.8L144.3,164.3L152.6,160.1L164.2,126.2L196.2,132.4L205.2,123.9L205.9,104.9L219.3,103.1L231.6,90.5L237.9,89.0L242.2,102.2L255.7,112.2L278.7,119.3L289.9,134.5L283.6,156.7L289.4,164.9L308.6,168.1L330.3,170.7L349.8,182.5L359.8,184.6L367.1,202.1L376.6,213.3L394.4,212.9L427.7,217.1L449.1,214.5L465.0,217.3L488.9,228.8L508.4,228.8L515.6,234.6L534.3,224.5L560.4,217.9L584.6,217.2L603.4,210.5L615.0,200.4L626.3,194.0L623.7,187.8L618.5,180.5L627.0,168.3L636.1,170.0L652.6,173.9L668.7,163.8L693.3,156.5L705.1,144.0L716.5,138.6L739.9,136.1L752.6,138.2L754.4,131.5L739.8,118.3L726.8,112.3L714.4,119.2L698.5,116.3L689.4,118.7L685.2,111.0L696.6,92.0L704.5,77.8L723.9,84.9L746.6,73.0L746.4,64.6L761.0,44.6L770.0,38.5L769.8,28.1L760.9,23.6L774.2,14.2L794.3,10.8L815.7,10.2L839.8,15.9L854.0,22.8L863.9,41.9L870.0,50.1L875.6,61.7L881.6,80.2Z"/>

<!-- Légende pays voisins -->
<g id="labels" style="pointer-events:none;">
  <text x="170" y="120" class="label-country">Russie</text>
  <text x="290" y="160" class="label-country">Mongolie</text>
  <text x="60" y="300" class="label-country">Kazakhstan</text>
  <text x="250" y="420" class="label-country">Inde</text>
  <text x="850" y="180" class="label-country">Japon</text>
  <text x="900" y="500" class="label-sea">Mer de Chine</text>
</g>

<!-- HOTSPOTS -->
<g id="hotspots-layer">
<g class="hotspot-marker" data-hotspot-id="pekin" transform="translate(700.0,266.8)">
  <circle class="outer" r="14"/>
  <circle class="inner" r="7"/>
  <text dy="-18">Pékin</text>
</g>
<g class="hotspot-marker" data-hotspot-id="shanghai" transform="translate(782.3,431.4)">
  <circle class="outer" r="14"/>
  <circle class="inner" r="7"/>
  <text dy="-18">Shanghai</text>
</g>
<g class="hotspot-marker" data-hotspot-id="xian" transform="translate(579.0,372.7)">
  <circle class="outer" r="14"/>
  <circle class="inner" r="7"/>
  <text dy="-18">Xi'an</text>
</g>
<g class="hotspot-marker" data-hotspot-id="muraille" transform="translate(701.6,257.3)">
  <circle class="outer" r="14"/>
  <circle class="inner" r="7"/>
  <text dy="-18">Grande Muraille</text>
</g>
<g class="hotspot-marker" data-hotspot-id="yangtse" transform="translate(588.7,438.9)">
  <circle class="outer" r="14"/>
  <circle class="inner" r="7"/>
  <text dy="-18">Yangtsé</text>
</g>
<g class="hotspot-marker" data-hotspot-id="tibet" transform="translate(291.9,461.6)">
  <circle class="outer" r="14"/>
  <circle class="inner" r="7"/>
  <text dy="-18">Tibet (Lhassa)</text>
</g>
<g class="hotspot-marker" data-hotspot-id="hongkong" transform="translate(664.5,599.7)">
  <circle class="outer" r="14"/>
  <circle class="inner" r="7"/>
  <text dy="-18">Hong Kong</text>
</g>
<g class="hotspot-marker" data-hotspot-id="gobi" transform="translate(483.9,208.1)">
  <circle class="outer" r="14"/>
  <circle class="inner" r="7"/>
  <text dy="-18">Désert de Gobi</text>
</g>
</g>
</svg>