<svg viewBox="0 0 1000 500" xmlns="http://www.w3.org/2000/svg" preserveAspectRatio="xMidYMid meet">
<rect width="1000" height="500" fill="#dde6ed" opacity="0.35"/>
<g id="countries"><path class="country" d="M670,151L679,149L685,146L692,147L697,143L700,148L708,146L700,149L698,155L692,160L688,163L679,168L672,165L669,157L670,151Z"/><path class="country" d="M545,266L550,272L556,270L560,272L562,281L567,281L561,286L553,299L536,297L534,291L538,283L536,275L534,267L545,266Z"/><path class="country" d="M557,134L557,138L554,138L554,133L557,133L557,134Z"/><path class="country" d="M643,183L650,183L657,181L654,185L643,183L643,183Z"/><path class="country" d="M318,403L309,396L318,403Z M320,311L331,316L337,325L348,321L347,327L339,342L341,350L330,358L326,364L321,368L319,374L315,381L309,390L307,395L296,390L300,380L301,373L300,363L302,352L305,342L308,326L313,317L320,311Z"/><path class="country" d="M621,136L627,138L628,142L624,140L621,136Z"/><path class="country" d="M335,472L317,474L330,472L335,472Z M58,471L45,468L57,470L58,471Z M375,467L375,473L350,474L361,469L370,466L375,467Z M225,450L227,451L216,450L225,450Z M310,447L303,451L292,450L300,448L305,441L310,447Z M337,428L328,430L326,435L318,439L326,443L330,450L330,456L317,460L299,463L291,465L284,468L291,473L317,476L338,481L362,477L387,476L416,474L412,470L402,467L420,463L438,461L454,458L457,453L469,449L480,448L492,448L505,448L520,445L530,447L542,446L557,444L569,446L583,444L594,440L605,443L617,441L629,438L641,436L651,433L661,436L673,439L686,438L693,444L691,447L697,450L704,445L716,443L725,439L735,437L745,435L757,437L769,437L780,435L791,434L806,435L818,434L829,437L842,435L855,435L869,434L877,432L885,436L901,436L910,439L927,441L939,443L952,446L968,447L974,451L965,456L955,461L956,466L955,470L944,475L959,480L979,484L0,485L11,484L28,483L50,486L95,487L81,483L75,478L78,475L92,472L69,470L61,464L80,465L94,461L103,459L121,457L136,457L156,457L174,456L186,457L201,459L220,459L214,455L221,452L236,454L252,452L267,454L280,454L295,455L311,452L311,447L311,442L313,436L322,431L331,428L341,426L337,428Z"/><path class="country" d="M691,385L691,388L691,385Z"/><path class="country" d="M904,363L912,367L907,371L902,363L904,363Z M899,288L904,293L906,301L913,307L919,312L925,322L926,332L921,342L917,351L909,356L903,355L893,356L886,349L880,348L881,344L874,342L865,337L847,341L839,344L831,346L821,346L821,341L820,332L815,324L817,323L815,316L817,313L825,307L831,305L840,301L844,297L847,292L850,289L858,291L862,286L868,282L873,283L879,283L878,288L881,294L887,298L893,294L893,286L895,281L898,284L899,288Z"/><path class="country" d="M547,116L544,120L534,119L526,119L529,118L536,118L541,114L547,115L547,116Z"/><path class="country" d="M632,136L638,137L637,142L634,141L628,140L625,136L630,136L632,136Z"/><path class="country" d="M581,262L585,257L584,261L581,262Z"/><path class="country" d="M509,107L517,111L510,110L509,107Z"/><path class="country" d="M507,233L504,223L504,218L510,218L509,224L507,233Z"/><path class="country" d="M492,223L486,222L488,215L492,212L499,209L503,214L503,219L497,219L492,223Z"/><path class="country" d="M757,189L756,190L751,189L747,186L747,180L750,180L754,183L757,189Z"/><path class="country" d="M563,127L572,128L577,132L570,135L562,132L563,129L563,127Z"/><path class="country" d="M553,125L553,129L548,129L544,124L552,125L553,125Z"/><path class="country" d="M565,100L574,96L583,95L588,100L587,102L585,106L579,107L568,106L566,104L565,100Z"/><path class="country" d="M252,201L255,199L255,201L254,205L252,201Z"/><path class="country" d="M325,311L314,313L308,303L308,293L309,285L313,279L318,282L329,287L333,292L338,298L339,305L328,305L325,311Z"/><path class="country" d="M340,334L351,323L349,317L346,313L339,308L340,300L333,295L332,288L324,285L319,277L309,281L302,278L296,273L297,267L303,262L305,251L306,247L314,247L321,246L321,243L323,239L332,236L334,238L334,245L340,245L345,244L349,244L353,244L358,240L360,250L375,254L389,258L402,265L397,281L392,294L387,308L376,315L365,324L359,336L351,342L345,336L340,334Z"/><path class="country" d="M817,237L819,238L817,237Z"/><path class="country" d="M755,173L749,176L752,172L755,173Z"/><path class="country" d="M571,301L577,308L575,315L571,321L563,321L557,324L558,311L567,300L571,301Z"/><path class="country" d="M542,229L550,228L556,225L564,220L566,226L573,232L573,236L568,236L560,238L552,238L544,244L542,238L541,232L542,229Z"/><path class="country" d="M157,115L147,112L148,110L157,115Z M344,109L347,113L353,116L350,118L344,118L335,115L346,107L344,109Z M131,100L133,103L130,102L131,100Z M263,68L273,71L271,73L258,73L263,68Z M234,58L225,56L234,58Z M248,57L257,63L270,57L274,64L258,69L248,75L237,86L253,92L268,97L278,108L283,97L282,87L290,77L302,80L312,88L326,88L339,97L345,105L329,111L310,114L315,114L321,122L334,122L316,129L312,123L306,120L301,125L288,128L281,130L271,134L270,132L268,123L266,121L264,120L252,117L240,115L236,114L194,114L159,114L144,106L137,98L130,88L118,86L108,67L123,57L141,56L154,55L167,57L180,61L201,61L207,60L227,62L235,61L232,52L243,56L248,57Z M183,47L197,48L204,47L219,55L210,59L185,60L176,55L176,54L168,51L183,47Z M288,47L278,48L288,47Z M260,47L276,50L294,52L314,58L328,64L311,66L320,74L316,77L300,73L282,71L295,66L286,59L279,56L251,53L254,46L260,47Z M221,45L232,48L215,49L221,45Z M241,48L235,45L241,48Z M165,52L153,47L173,44L165,51L165,52Z M240,42L237,40L240,42Z M226,37L220,42L222,37L226,37Z M199,38L205,42L189,41L187,38L198,37L199,38Z M237,36L250,39L270,39L272,43L243,42L230,37L237,36Z M177,34L163,39L173,35L177,34Z M234,33L230,31L234,33Z M222,32L211,31L222,32Z M258,29L242,32L233,29L237,24L258,29Z M310,19L321,22L307,26L290,30L282,35L276,38L251,36L260,33L260,29L266,26L246,23L266,21L288,19L310,19Z"/><path class="country" d="M527,118L529,121L523,122L517,121L521,118L527,118Z"/><path class="country" d="M309,396L311,404L299,401L302,400L309,396Z M311,310L310,318L307,329L306,342L302,354L301,367L302,373L299,383L297,391L310,395L302,400L291,393L294,380L298,368L295,361L298,349L301,330L305,305L308,303L311,310Z"/><path class="country" d="M492,236L482,237L479,234L476,229L477,227L478,222L482,221L486,222L492,223L492,236Z"/><path class="country" d="M536,244L527,244L524,238L528,230L534,228L537,222L539,215L541,220L539,223L542,229L540,237L544,243L536,244Z"/><path class="country" d="M586,240L584,247L581,255L581,262L585,273L580,277L582,284L576,284L569,281L563,281L561,275L557,269L553,272L547,270L535,267L535,264L539,263L544,258L549,250L551,242L556,237L563,237L570,236L578,238L583,238L586,240Z"/><path class="country" d="M536,263L533,260L536,257L538,250L536,244L546,241L550,243L549,251L544,260L539,263L536,263Z"/><path class="country" d="M291,250L284,248L281,244L285,239L284,230L285,226L290,221L298,217L302,217L297,223L299,228L304,230L312,233L312,239L313,244L311,245L307,248L307,254L303,256L295,254L291,250Z"/><path class="country" d="M270,227L267,224L264,223L262,221L264,220L268,220L270,225L270,227Z"/><path class="country" d="M271,186L282,187L290,192L292,195L285,193L277,189L270,187L264,189L271,186L271,186Z"/><path class="country" d="M591,152L594,152L593,153L591,152Z"/><path class="country" d="M594,153L591,152L593,153L594,153Z"/><path class="country" d="M547,115L540,115L534,110L540,108L546,111L552,113L550,114L547,115Z"/><path class="country" d="M528,97L535,99L540,104L540,108L534,111L536,116L532,118L524,117L518,113L517,106L520,101L524,97L528,97Z"/><path class="country" d="M620,215L619,220L616,218L620,215Z"/><path class="country" d="M530,93L526,98L524,91L528,92L530,93Z"/><path class="country" d="M301,195L306,196L309,199L304,199L301,200L301,195Z"/><path class="country" d="M533,185L509,195L486,181L480,168L490,162L496,159L500,150L515,148L523,149L523,159L527,170L526,178L532,183L533,185Z"/><path class="country" d="M277,259L276,255L278,248L285,249L291,253L282,263L276,261L277,259Z"/><path class="country" d="M597,168L593,172L593,173L599,184L581,189L569,165L579,164L588,163L595,163L597,168Z"/><path class="country" d="M618,215L611,210L604,211L603,202L611,207L620,215L618,215Z"/><path class="country" d="M475,134L485,129L501,132L506,135L500,142L491,148L483,149L480,144L480,138L480,134L475,134Z"/><path class="country" d="M568,89L568,85L576,87L570,89L568,89Z"/><path class="country" d="M605,208L614,211L617,216L618,219L621,224L619,238L611,239L606,240L598,235L592,228L595,220L601,212L605,208Z"/><path class="country" d="M579,58L582,70L584,78L562,82L562,73L565,66L562,59L577,55L579,58Z"/><path class="country" d="M330,394L339,394L330,394Z"/><path class="country" d="M354,243L350,244L349,238L356,237L354,243Z M510,110L517,113L520,118L518,121L519,127L509,130L496,130L492,118L495,112L507,109L510,110Z"/><path class="country" d="M531,261L525,251L531,244L536,245L540,252L535,255L531,261Z"/><path class="country" d="M492,87L491,95L501,102L504,108L490,110L491,107L487,103L490,98L486,95L486,87L492,87Z"/><path class="country" d="M615,135L611,129L622,132L628,134L625,135L615,135Z"/><path class="country" d="M503,234L492,235L492,221L500,219L502,227L503,234Z"/><path class="country" d="M477,229L474,228L471,226L467,222L463,225L459,220L461,218L462,215L468,216L470,216L474,216L476,219L478,222L477,227L477,229Z"/><path class="country" d="M453,213L459,212L459,213L453,213Z"/><path class="country" d="M458,219L454,216L462,215L461,218L458,219Z"/><path class="country" d="M526,247L527,247L526,247Z"/><path class="country" d="M574,135L566,137L563,138L567,144L564,149L558,142L558,137L563,135L573,135L574,135Z"/><path class="country" d="M370,20L425,18L413,22L436,25L455,26L445,31L445,39L443,45L438,49L440,54L427,55L415,61L397,67L386,74L376,83L357,73L350,63L356,57L349,53L347,52L341,42L316,39L315,35L317,29L327,24L353,23L370,22L370,20Z"/><path class="country" d="M250,212L244,209L249,204L247,202L252,206L254,207L251,210L250,212Z"/><path class="country" d="M334,227L340,232L339,239L342,245L337,246L334,240L333,235L332,231L334,227Z"/><path class="country" d="M257,214L255,211L252,210L255,206L257,206L262,206L266,206L268,208L265,209L263,210L260,212L258,214L257,214Z"/><path class="country" d="M552,122L550,125L544,126L549,130L544,129L540,124L540,124L544,123L551,123L552,122Z"/><path class="country" d="M297,195L300,198L296,199L298,199L297,195Z"/><path class="country" d="M545,120L549,117L555,116L561,116L560,119L551,123L545,120Z"/><path class="country" d="M802,269L818,272L810,273L796,270L800,268L802,269Z M862,259L855,259L862,259Z M873,253L884,255L892,275L883,271L875,262L869,259L867,256L868,251L873,253Z M848,246L834,249L842,253L840,260L841,262L836,257L832,265L831,256L838,247L848,246Z M857,247L856,252L856,245L857,247Z M827,245L824,254L818,260L808,258L803,249L809,247L818,246L827,239L827,245Z M794,266L782,258L774,245L765,235L777,241L788,250L791,257L794,266Z"/><path class="country" d="M716,151L718,159L722,170L737,176L745,174L749,176L755,173L767,168L770,173L763,180L759,187L755,186L755,180L746,177L746,183L745,190L733,199L724,206L722,217L717,225L710,219L704,206L698,192L689,184L695,176L704,167L706,157L716,151Z"/><path class="country" d="M483,100L475,103L479,100L483,100Z"/><path class="country" d="M650,147L659,144L670,151L669,161L670,169L676,176L659,179L649,176L638,167L632,164L627,153L623,145L626,142L634,141L639,146L650,147Z"/><path class="country" d="M626,150L628,158L633,165L624,169L614,154L619,146L626,150Z"/><path class="country" d="M460,65L448,74L438,69L443,67L460,65Z"/><path class="country" d="M599,159L597,162L595,163L597,158L600,159L599,159Z"/><path class="country" d="M543,144L538,147L543,144Z M526,136L523,141L526,136Z M534,120L534,124L539,131L547,136L549,138L546,142L545,142L539,137L529,131L522,128L520,124L523,122L529,121L534,120Z"/><path class="country" d="M285,199L286,201L285,199Z"/><path class="country" d="M599,160L608,161L602,167L598,164L599,160Z"/><path class="country" d="M874,155L869,159L872,155L874,155Z M892,147L881,154L867,156L862,163L864,155L880,146L889,137L892,144L892,147Z M900,127L898,133L890,130L900,127Z"/><path class="country" d="M697,133L689,136L680,129L663,124L652,133L646,132L640,126L648,122L636,121L629,116L635,109L658,108L671,108L669,101L692,96L704,101L722,109L734,110L741,115L729,124L723,132L710,131L698,131L697,133Z"/><path class="country" d="M614,252L611,259L605,259L596,247L596,237L602,238L610,240L614,242L614,252Z"/><path class="country" d="M697,133L706,130L721,132L714,136L705,140L693,139L700,135L697,133Z"/><path class="country" d="M787,220L790,210L799,212L790,221L787,220Z"/><path class="country" d="M857,143L856,153L850,148L853,144L857,143Z"/><path class="country" d="M558,133L556,132L558,130L560,131L558,133Z"/><path class="country" d="M633,167L632,169L633,167Z"/><path class="country" d="M792,210L789,199L781,201L778,193L782,188L791,195L796,204L795,211L792,210Z"/><path class="country" d="M600,158L600,154L600,158Z"/><path class="country" d="M479,238L468,231L472,227L475,230L476,232L479,236L479,238Z"/><path class="country" d="M541,186L530,182L527,176L527,168L530,162L536,159L550,165L556,160L566,161L569,165L569,194L541,186Z"/><path class="country" d="M727,229L721,227L727,229Z"/><path class="country" d="M580,330L578,335L579,330L580,330Z"/><path class="country" d="M563,99L558,94L571,94L568,100L563,99Z"/><path class="country" d="M517,111L516,111L517,111Z"/><path class="country" d="M558,94L567,92L576,90L574,96L562,94L558,94Z"/><path class="country" d="M486,151L495,154L493,161L485,167L476,173L472,175L465,181L453,190L455,186L459,179L465,172L473,163L481,155L486,151Z"/><path class="country" d="M574,116L581,117L583,121L580,121L578,122L575,116L574,116Z"/><path class="country" d="M638,285L640,294L638,297L633,312L625,320L620,311L624,304L623,295L630,292L636,286L638,285Z"/><path class="country" d="M230,178L229,189L234,198L244,198L249,192L259,191L257,197L253,200L247,201L248,204L244,208L237,205L228,205L217,200L207,195L208,190L200,182L195,176L188,170L184,162L181,166L186,171L190,176L194,183L194,187L188,179L184,175L183,172L177,164L181,160L199,162L209,166L218,167L224,175L230,178Z"/><path class="country" d="M557,134L561,132L563,136L557,135L557,134Z"/><path class="country" d="M466,209L472,207L485,205L505,193L512,197L504,207L497,208L490,213L486,218L483,221L478,221L476,220L475,216L471,217L468,215L466,209Z"/><path class="country" d="M777,194L772,201L773,209L775,220L774,214L768,204L762,199L756,190L759,186L764,178L771,173L774,176L775,186L781,189L777,194Z"/><path class="country" d="M555,132L552,133L553,129L556,131L555,132Z"/><path class="country" d="M744,113L762,110L772,108L784,110L800,112L814,112L823,114L828,116L826,120L812,125L809,129L792,134L776,132L763,127L753,120L744,113Z"/><path class="country" d="M596,282L605,281L612,283L611,295L600,302L598,311L599,316L590,321L589,323L587,312L591,304L588,295L584,291L596,292L599,294L595,284L596,282Z"/><path class="country" d="M466,209L458,204L455,202L454,193L464,185L486,181L485,207L468,207L466,209Z"/><path class="country" d="M596,282L599,291L595,293L592,289L593,280L594,277L596,282Z"/><path class="country" d="M781,233L786,235L788,242L785,245L778,235L781,233Z M829,238L820,242L811,247L807,245L816,239L821,236L827,232L829,236L829,238Z"/><path class="country" d="M545,329L540,316L536,305L536,297L553,299L570,299L564,300L555,319L548,330L545,329Z"/><path class="country" d="M960,309L960,310L958,307L960,309Z"/><path class="country" d="M506,217L501,210L510,207L524,190L542,191L543,200L539,213L539,215L531,213L522,213L512,212L508,216L506,217Z"/><path class="country" d="M524,237L515,236L508,228L510,221L511,214L519,214L528,213L536,212L540,217L536,224L533,231L526,232L524,237Z"/><path class="country" d="M262,219L256,214L259,213L261,211L263,210L265,209L269,208L268,212L267,217L267,220L262,219L262,219Z"/><path class="country" d="M517,101L517,106L509,107L517,101Z"/><path class="country" d="M578,52L579,58L569,59L556,58L545,63L535,72L532,85L516,87L529,71L559,55L578,52Z M569,34L564,32L569,34Z M551,29L548,37L531,31L543,28L551,29Z M571,27L555,28L564,26L571,27Z"/><path class="country" d="M745,173L739,176L725,171L729,166L738,172L745,173Z"/><path class="country" d="M981,364L983,367L976,373L968,379L968,373L977,366L981,364Z M985,350L991,355L994,359L990,363L987,362L985,356L981,348L985,350Z"/><path class="country" d="M664,191L661,197L656,200L651,203L653,194L654,184L658,183L665,187L664,191Z"/><path class="country" d="M709,147L710,154L709,160L699,172L697,180L687,181L672,177L672,170L678,168L686,163L693,161L697,156L698,150L709,147Z"/><path class="country" d="M284,230L282,226L277,227L275,230L272,227L270,227L270,224L273,225L279,223L284,225L284,229L284,230Z"/><path class="country" d="M307,299L296,295L286,284L276,268L277,259L279,262L287,257L293,251L301,256L304,260L298,265L295,270L298,276L305,281L308,290L307,299Z"/><path class="country" d="M851,227L848,231L845,230L839,230L846,226L851,226L851,227Z M844,221L841,222L845,219L844,221Z M829,224L832,218L829,224Z M849,216L847,222L847,217L849,216Z M837,199L840,203L840,211L845,215L836,212L835,210L834,201L837,199Z"/><path class="country" d="M922,265L916,268L916,265L920,264L923,264L922,265Z M909,271L917,277L916,279L906,272L896,276L896,259L910,267L909,271Z M925,262L921,258L923,259L925,262Z"/><path class="country" d="M542,108L540,102L552,98L565,99L564,104L565,110L558,113L552,113L546,111L542,108Z"/><path class="country" d="M316,199L313,200L316,199Z"/><path class="country" d="M863,132L860,136L854,140L856,143L850,145L847,145L848,141L851,136L860,132L863,132Z"/><path class="country" d="M475,134L480,134L480,138L480,144L477,147L474,142L476,136L475,134Z"/><path class="country" d="M326,312L336,304L342,312L346,317L349,320L340,326L333,317L326,312Z"/><path class="country" d="M641,181L643,180L641,181Z"/><path class="country" d="M563,117L570,117L576,117L578,124L581,125L572,128L563,127L560,126L558,121L563,117Z"/><path class="country" d="M899,109L899,122L894,114L896,101L898,106L899,109Z M14,65L25,68L15,70L3,67L0,58L14,65Z M919,41L912,41L919,41Z M903,40L882,39L903,40Z M660,54L643,50L655,43L684,37L671,41L660,54Z M797,36L817,39L807,44L821,45L848,46L860,52L882,52L915,49L944,54L961,57L973,55L1000,70L997,74L985,78L969,82L953,86L950,94L940,103L932,96L945,85L952,79L931,86L913,86L880,98L893,103L885,119L871,131L863,132L866,124L875,115L859,113L850,103L834,103L831,111L818,110L801,113L788,111L775,105L763,111L747,113L736,111L724,107L707,101L697,97L671,100L667,106L662,108L641,106L631,113L635,121L632,129L632,136L624,131L611,129L604,124L606,119L610,114L604,110L595,108L590,105L587,102L588,100L583,95L577,91L578,85L588,75L581,64L586,57L614,63L592,65L603,73L612,70L624,65L630,62L634,62L652,61L670,58L690,61L687,56L694,47L702,54L701,66L707,60L703,52L709,52L726,51L741,45L758,40L780,38L791,36L797,36Z M792,32L793,31L792,32Z M642,26L629,27L635,26L642,26Z M778,31L753,27L778,31Z"/><path class="country" d="M584,253L582,258L582,254L584,253Z"/><path class="country" d="M476,175L476,178L464,191L459,190L467,178L473,175L476,175Z"/><path class="country" d="M619,205L615,198L608,189L603,181L599,174L597,168L605,166L612,161L633,171L639,176L641,181L643,183L653,194L631,203L622,202L619,205Z"/><path class="country" d="M594,224L592,218L590,218L583,221L578,224L572,222L567,226L565,223L563,218L562,213L564,206L569,189L603,192L605,202L601,210L596,220L594,224Z"/><path class="country" d="M594,224L593,229L596,237L587,239L580,238L574,233L568,227L570,221L575,223L582,223L588,221L591,216L594,222L594,224Z"/><path class="country" d="M454,212L454,205L461,205L467,213L466,215L457,215L456,214L460,213L458,211L454,212Z"/><path class="country" d="M468,231L463,225L467,222L471,226L469,230L468,231Z"/><path class="country" d="M256,213L251,212L251,210L254,212L256,213Z"/><path class="country" d="M636,224L620,223L621,219L630,220L636,218L636,224Z"/><path class="country" d="M638,218L642,219L637,231L622,247L614,252L621,236L636,222L638,218Z"/><path class="country" d="M558,124L563,126L564,130L561,132L560,131L558,130L555,130L554,128L553,124L558,124Z"/><path class="country" d="M341,233L349,236L349,244L345,244L340,241L341,233Z"/><path class="country" d="M552,113L558,113L561,116L555,116L549,117L549,114L551,113L552,113Z"/><path class="country" d="M538,121L545,120L543,124L539,123L538,121Z"/><path class="country" d="M562,67L548,80L546,92L535,94L535,80L539,71L549,61L561,59L562,67Z"/><path class="country" d="M589,324L586,322L589,324Z"/><path class="country" d="M608,157L600,158L600,152L603,148L614,147L614,154L608,157Z"/><path class="country" d="M540,214L539,206L543,192L555,190L562,210L561,215L564,219L553,225L546,229L543,229L539,222L542,218L540,214Z"/><path class="country" d="M505,233L502,227L500,219L504,224L505,233Z"/><path class="country" d="M785,216L778,216L779,227L783,234L777,231L773,227L776,214L774,207L772,198L779,194L784,200L791,202L790,210L785,216Z"/><path class="country" d="M697,138L699,141L708,144L701,147L698,144L693,146L690,144L692,139L697,138Z"/><path class="country" d="M670,151L659,144L650,147L646,139L649,133L650,132L658,134L668,135L678,142L683,145L676,150L670,151Z"/><path class="country" d="M847,275L854,273L847,275Z"/><path class="country" d="M329,220L328,222L329,220Z"/><path class="country" d="M526,166L521,155L526,146L529,149L529,156L530,161L526,166Z"/><path class="country" d="M603,135L618,134L624,140L623,147L613,147L602,148L600,148L588,148L577,148L576,138L593,133L603,135Z M576,137L574,135L581,135L576,137Z"/><path class="country" d="M838,182L835,182L838,182Z"/><path class="country" d="M594,253L608,266L609,272L610,280L601,283L594,276L585,273L581,262L585,258L584,253L594,253Z"/><path class="country" d="M589,253L582,252L586,245L589,240L596,242L594,253L589,253Z"/><path class="country" d="M588,105L596,106L598,110L611,112L608,117L600,120L601,125L590,124L588,120L580,124L580,121L583,121L581,117L574,116L568,117L561,115L565,110L568,106L579,107L585,106L588,105Z"/><path class="country" d="M340,334L351,339L347,347L338,344L340,334Z"/><path class="country" d="M237,113L245,116L257,117L265,121L267,122L271,127L269,133L277,132L281,129L291,126L303,124L309,119L314,126L303,131L306,134L299,135L296,137L294,140L291,142L289,147L288,144L289,148L282,156L274,163L276,172L276,180L270,174L266,166L257,166L252,168L248,169L237,168L230,176L225,177L220,168L210,168L204,162L185,161L174,158L168,155L160,146L154,138L155,126L154,116L159,114L194,114L236,114L237,113Z M75,91L74,89L75,91Z M69,52L81,54L101,55L108,82L121,85L131,90L136,97L125,88L104,83L89,83L78,84L76,83L66,90L55,95L42,98L55,93L64,86L56,87L50,84L41,80L45,74L53,72L48,71L33,68L51,66L37,60L50,55L69,52Z"/><path class="country" d="M685,146L673,139L667,133L655,135L670,127L683,133L691,137L696,135L697,138L692,139L690,144L685,146Z"/><path class="country" d="M302,217L300,223L302,220L309,218L318,222L328,220L331,226L333,230L331,236L325,240L321,241L322,246L314,247L313,240L313,233L305,231L299,229L296,225L300,218L302,217Z"/><path class="country" d="M800,190L798,204L801,219L792,222L799,216L796,204L791,195L785,187L796,187L800,190Z"/><path class="country" d="M599,160L598,162L599,160Z"/><path class="country" d="M648,204L638,209L630,213L625,215L620,212L619,206L621,201L629,202L636,198L648,204Z"/><path class="country" d="M588,331L580,339L572,344L563,344L553,346L551,342L547,333L548,330L555,319L560,324L566,321L572,319L582,311L588,316L586,321L589,325L589,330L588,331Z M580,330L577,335L581,331L580,330Z"/><path class="country" d="M591,276L593,285L584,293L577,298L570,299L563,297L567,284L568,281L575,282L582,287L579,280L584,273L591,276Z"/><path class="country" d="M587,312L580,310L573,304L574,300L580,295L588,295L591,302L590,309L587,312Z"/></g><path class="country available" id="china-path" d="M806.5,198.1L804.1,199.5L801.8,198.6L801.7,196.2L803.1,194.9L806.1,194.2L807.7,194.2L808.4,195.3L807.1,196.5L806.5,198.1Z M854.6,111.8L859.4,112.7L862.7,114.6L863.9,117.2L868.1,117.3L870.5,116.2L875.1,115.3L873.6,117.8L872.5,118.9L871.6,121.9L869.7,124.6L866.3,124.1L864.0,125.1L864.7,127.5L864.3,130.8L862.9,130.8L862.9,132.2L861.1,130.6L860.0,132.2L855.7,133.3L856.1,134.8L853.7,134.7L852.4,133.8L850.5,135.8L847.4,137.3L845.2,139.1L841.3,139.9L839.3,141.2L836.3,142.0L837.7,140.7L837.2,139.6L839.4,137.7L837.9,136.3L835.5,137.2L832.3,139.2L830.6,141.0L827.9,141.1L826.5,142.4L827.9,144.3L830.2,144.7L830.3,146.0L832.5,146.8L835.6,144.8L838.1,145.9L839.9,146.0L840.3,147.4L836.4,148.2L835.1,149.7L832.4,151.1L831.0,153.0L834.0,154.6L835.1,157.3L836.7,159.8L838.6,162.0L838.6,164.0L836.8,164.8L837.5,166.3L839.1,167.1L838.7,169.4L838.0,171.6L836.5,171.8L834.4,174.9L832.2,178.5L829.6,181.8L825.8,184.4L821.9,186.7L818.8,187.0L817.1,188.3L816.1,187.4L814.6,188.7L810.7,190.1L807.7,190.6L806.8,193.5L805.2,193.7L804.5,191.6L805.2,190.6L801.5,189.7L800.1,190.1L797.3,189.4L796.0,188.3L796.5,186.7L793.9,186.2L792.6,185.1L790.2,186.6L787.5,186.9L785.3,186.9L783.8,187.6L782.4,188.0L782.8,191.2L781.3,191.1L781.1,190.5L781.0,189.3L778.9,190.1L777.7,189.6L775.7,188.6L776.5,186.3L774.7,185.7L774.1,183.2L771.1,183.6L771.5,180.3L774.1,178.0L774.2,175.7L774.1,173.6L772.9,172.9L772.0,171.3L770.4,171.5L767.4,171.1L768.3,169.9L767.0,168.2L765.0,169.4L762.7,168.7L759.5,170.4L757.0,172.5L754.7,172.9L753.5,172.1L752.0,172.0L750.0,171.4L748.5,172.1L746.7,174.2L746.5,172.0L744.8,172.6L741.5,172.3L738.4,171.7L736.1,170.4L734.0,169.9L733.1,168.6L731.5,168.2L728.7,166.3L726.5,165.5L725.3,166.2L721.4,164.2L718.7,162.5L717.9,159.4L719.9,159.8L720.0,158.3L718.9,156.9L719.2,154.7L716.2,151.4L711.6,150.3L710.8,148.1L708.8,146.9L708.3,146.1L707.9,144.5L708.0,143.4L706.3,142.8L705.4,143.0L704.7,140.5L705.4,139.8L705.1,139.2L707.7,137.9L709.6,137.3L712.6,137.7L713.6,135.9L717.2,135.6L718.2,134.5L722.6,133.0L722.9,132.4L722.7,130.8L724.6,130.1L722.1,125.2L727.6,124.1L729.1,123.5L731.1,118.5L736.6,119.4L738.1,118.2L738.2,115.4L740.6,115.1L742.7,113.3L743.8,113.1L744.5,115.0L746.8,116.5L750.8,117.5L752.7,119.8L751.6,123.0L752.6,124.2L755.9,124.7L759.7,125.1L763.0,126.8L764.7,127.1L766.0,129.7L767.6,131.3L770.7,131.3L776.4,131.9L780.1,131.5L782.9,131.9L787.0,133.6L790.3,133.6L791.6,134.5L794.8,133.0L799.3,132.0L803.5,131.9L806.7,130.9L808.7,129.4L810.6,128.5L810.2,127.6L809.3,126.5L810.8,124.7L812.3,125.0L815.2,125.5L817.9,124.1L822.2,123.0L824.2,121.1L826.2,120.4L830.2,120.0L832.4,120.3L832.7,119.3L830.2,117.4L828.0,116.5L825.8,117.5L823.1,117.1L821.5,117.4L820.8,116.3L822.8,113.5L824.1,111.4L827.4,112.5L831.4,110.7L831.3,109.5L833.8,106.5L835.4,105.7L835.3,104.1L833.8,103.5L836.1,102.1L839.6,101.6L843.3,101.5L847.4,102.3L849.9,103.4L851.6,106.2L852.6,107.4L853.6,109.1L854.6,111.8Z" data-country="china" data-name="La Chine"/></svg>